<?xml version="1.0" encoding="UTF-8" standalone="no"?>
<!-- Created with Inkscape (http://www.inkscape.org/) -->

<svg
   xmlns:ns1="http://www.iki.fi/pav/software/textext/"
   xmlns:osb="http://www.openswatchbook.org/uri/2009/osb"
   xmlns:dc="http://purl.org/dc/elements/1.1/"
   xmlns:cc="http://creativecommons.org/ns#"
   xmlns:rdf="http://www.w3.org/1999/02/22-rdf-syntax-ns#"
   xmlns:svg="http://www.w3.org/2000/svg"
   xmlns="http://www.w3.org/2000/svg"
   xmlns:sodipodi="http://sodipodi.sourceforge.net/DTD/sodipodi-0.dtd"
   xmlns:inkscape="http://www.inkscape.org/namespaces/inkscape"
   width="210mm"
   height="297mm"
   viewBox="0 0 744.09448819 1052.3622047"
   id="svg2"
   version="1.1"
   inkscape:version="0.91 r13725"
   sodipodi:docname="drawing.svg">
  <sodipodi:namedview
     id="base"
     pagecolor="#ffffff"
     bordercolor="#666666"
     borderopacity="1.0"
     inkscape:pageopacity="0.0"
     inkscape:pageshadow="2"
     inkscape:zoom="0.35"
     inkscape:cx="177.81049"
     inkscape:cy="131.88102"
     inkscape:document-units="px"
     inkscape:current-layer="layer1"
     showgrid="false"
     inkscape:window-width="1855"
     inkscape:window-height="1056"
     inkscape:window-x="65"
     inkscape:window-y="24"
     inkscape:window-maximized="1" />
  <defs
     id="defs4">
    <marker
       inkscape:isstock="true"
       style="overflow:visible;"
       id="marker6103"
       refX="0.0"
       refY="0.0"
       orient="auto"
       inkscape:stockid="Arrow2Lend">
      <path
         transform="scale(1.1) rotate(180) translate(1,0)"
         d="M 8.7185878,4.0337352 L -2.2072895,0.016013256 L 8.7185884,-4.0017078 C 6.9730900,-1.6296469 6.9831476,1.6157441 8.7185878,4.0337352 z "
         style="fill-rule:evenodd;stroke-width:0.625;stroke-linejoin:round;stroke:#000000;stroke-opacity:1;fill:#000000;fill-opacity:1"
         id="path6105" />
    </marker>
    <marker
       inkscape:isstock="true"
       style="overflow:visible;"
       id="marker6063"
       refX="0.0"
       refY="0.0"
       orient="auto"
       inkscape:stockid="Arrow2Lend">
      <path
         transform="scale(1.1) rotate(180) translate(1,0)"
         d="M 8.7185878,4.0337352 L -2.2072895,0.016013256 L 8.7185884,-4.0017078 C 6.9730900,-1.6296469 6.9831476,1.6157441 8.7185878,4.0337352 z "
         style="fill-rule:evenodd;stroke-width:0.625;stroke-linejoin:round;stroke:#000000;stroke-opacity:1;fill:#000000;fill-opacity:1"
         id="path6065" />
    </marker>
    <marker
       inkscape:isstock="true"
       style="overflow:visible;"
       id="Arrow2Lend"
       refX="0.0"
       refY="0.0"
       orient="auto"
       inkscape:stockid="Arrow2Lend">
      <path
         transform="scale(1.1) rotate(180) translate(1,0)"
         d="M 8.7185878,4.0337352 L -2.2072895,0.016013256 L 8.7185884,-4.0017078 C 6.9730900,-1.6296469 6.9831476,1.6157441 8.7185878,4.0337352 z "
         style="fill-rule:evenodd;stroke-width:0.625;stroke-linejoin:round;stroke:#000000;stroke-opacity:1;fill:#000000;fill-opacity:1"
         id="path5738" />
    </marker>
    <marker
       inkscape:isstock="true"
       style="overflow:visible"
       id="TriangleInL"
       refX="0.0"
       refY="0.0"
       orient="auto"
       inkscape:stockid="TriangleInL">
      <path
         transform="scale(-0.8)"
         style="fill-rule:evenodd;stroke:#000000;stroke-width:1pt;stroke-opacity:1;fill:#000000;fill-opacity:1"
         d="M 5.77,0.0 L -2.88,5.0 L -2.88,-5.0 L 5.77,0.0 z "
         id="path5850" />
    </marker>
    <marker
       inkscape:isstock="true"
       style="overflow:visible"
       id="Arrow2Lstart"
       refX="0.0"
       refY="0.0"
       orient="auto"
       inkscape:stockid="Arrow2Lstart">
      <path
         transform="scale(1.1) translate(1,0)"
         d="M 8.7185878,4.0337352 L -2.2072895,0.016013256 L 8.7185884,-4.0017078 C 6.9730900,-1.6296469 6.9831476,1.6157441 8.7185878,4.0337352 z "
         style="fill-rule:evenodd;stroke-width:0.625;stroke-linejoin:round;stroke:#000000;stroke-opacity:1;fill:#000000;fill-opacity:1"
         id="path5735" />
    </marker>
    <linearGradient
       osb:paint="solid"
       id="linearGradient5703">
      <stop
         id="stop5705"
         offset="0"
         style="stop-color:#373748;stop-opacity:1;" />
    </linearGradient>
    <linearGradient
       osb:paint="solid"
       id="linearGradient5677">
      <stop
         id="stop5679"
         offset="0"
         style="stop-color:#000000;stop-opacity:1;" />
    </linearGradient>
  </defs>
  <metadata
     id="metadata7">
    <rdf:RDF>
      <cc:Work
         rdf:about="">
        <dc:format>image/svg+xml</dc:format>
        <dc:type
           rdf:resource="http://purl.org/dc/dcmitype/StillImage" />
        <dc:title />
      </cc:Work>
    </rdf:RDF>
  </metadata>
  <g
     id="layer1"
     inkscape:groupmode="layer"
     inkscape:label="Layer 1">
    <ellipse
       ry="24.285715"
       rx="23.571428"
       cy="335.69724"
       cx="162.37798"
       id="path3336"
       style="fill:none;fill-opacity:1;stroke:#000000;stroke-opacity:1" />
    <ellipse
       ry="24.285715"
       rx="23.571428"
       cy="334.14374"
       cx="346.98743"
       id="path3336-3"
       style="fill:none" />
    <path
       sodipodi:nodetypes="cc"
       inkscape:connector-curvature="0"
       id="path3357"
       d="m 181.31135,349.68753 c 0,0 78.14809,51.36881 142.72995,-2.75553"
       style="fill:none;fill-rule:evenodd;stroke:#000000;stroke-width:1.38800001;stroke-linecap:butt;stroke-linejoin:miter;stroke-miterlimit:4;stroke-dasharray:none;stroke-opacity:1;marker-end:url(#marker6103)" />
    <path
       inkscape:connector-curvature="0"
       id="path3399"
       d="m 155.69103,358.66037 c -4.06847,-1.30085 -6.83613,-3.051 -9.82882,-6.21533 -7.25896,-7.67529 -8.7731,-18.66384 -3.89751,-28.28536 0.7327,-1.44592 2.72333,-4.01018 4.42362,-5.69836 8.95649,-8.89267 22.26469,-9.08248 31.58823,-0.45054 7.75274,7.17768 9.82862,18.95828 5.07206,28.78401 -1.43647,2.96735 -6.05955,7.96668 -8.91404,9.63953 -5.39592,3.16222 -12.74244,4.04891 -18.44354,2.22605 z"
       style="fill:#373748;fill-opacity:0" />
    <path
       inkscape:connector-curvature="0"
       id="path3401"
       d="m 155.69103,358.66037 c -4.06847,-1.30085 -6.83613,-3.051 -9.82882,-6.21533 -7.28051,-7.69807 -8.78757,-18.63528 -3.89751,-28.28536 2.75568,-5.43808 9.37196,-10.58097 15.4002,-11.9707 14.31608,-3.30039 28.23674,8.27429 28.20947,23.45547 -0.008,4.2929 -0.61549,7.09574 -2.31989,10.69855 -1.564,3.30603 -6.093,8.31743 -9.11991,10.09132 -5.39592,3.16222 -12.74244,4.04891 -18.44354,2.22605 z"
       style="fill:none;stroke:#000000;stroke-opacity:1" />
    <path
       inkscape:connector-curvature="0"
       id="path3403"
       d="m 158.57113,359.05362 c -9.15003,-1.26547 -17.42854,-9.93056 -18.95501,-19.84012 -1.92279,-12.48244 6.82385,-24.80951 19.19529,-27.05288 11.99701,-2.17547 24.21547,7.04847 26.2559,19.82107 0.69334,4.34017 -0.061,10.1531 -1.79244,13.81315 -1.5635,3.30496 -6.57398,8.85262 -9.50928,10.52877 -4.35744,2.48825 -9.83133,3.47175 -15.19446,2.73001 z"
       style="fill:#373748;fill-opacity:0;stroke:#000000;stroke-opacity:1" />
    <path
       inkscape:connector-curvature="0"
       id="path3427"
       d="m 342.9617,357.88049 c -10.37541,-2.00885 -17.80441,-10.16218 -19.1702,-21.03928 -1.48758,-11.84705 6.31653,-23.25901 17.89307,-26.16502 3.46292,-0.86929 9.40363,-0.56765 12.81527,0.65069 7.35881,2.62793 13.45263,9.45419 15.23023,17.06081 0.77488,3.3158 0.70832,8.5644 -0.15123,11.92518 -1.11402,4.35579 -2.92478,7.45017 -6.42091,10.97255 -2.51484,2.53374 -3.58879,3.32969 -6.08909,4.51288 -1.66964,0.79011 -3.75892,1.60649 -4.64285,1.81417 -2.82449,0.66362 -6.83457,0.77718 -9.46429,0.26802 z"
       style="fill:none;stroke:#000000;stroke-opacity:1" />
    <path
       inkscape:connector-curvature="0"
       id="path4229"
       d="m 334.55199,353.64704 c -6.46486,-4.39299 -9.8215,-11.38174 -9.8215,-20.44902 0,-26.63663 38.34766,-30.25248 44.2301,-4.17051 1.36159,6.03711 -0.0378,13.71043 -3.45026,18.91845 -6.20823,9.47496 -21.3115,12.25627 -30.95834,5.70108 z"
       style="fill:none" />
    <path
       inkscape:connector-curvature="0"
       id="path4231"
       d="m 339.02638,356.55058 c -13.14904,-4.97363 -18.96553,-20.7908 -12.40578,-33.73586 1.77783,-3.50836 6.82472,-8.46411 10.38357,-10.19605 6.03807,-2.93846 13.98133,-2.95598 19.93328,-0.044 3.93625,1.92583 8.72518,6.77824 10.72692,10.8691 5.8226,11.89942 0.67041,26.80625 -11.18567,32.36351 -3.32692,1.55941 -4.11242,1.72013 -8.95029,1.83131 -4.55504,0.10468 -5.75462,-0.0488 -8.50203,-1.08805 z"
       style="fill:none;fill-opacity:1;stroke:#000000;stroke-opacity:1;stroke-width:1.1;stroke-miterlimit:4;stroke-dasharray:none" />
    <g
       id="g4192"
       ns1:jacobian_sqrt="1.25"
       inkscapeversion="0.91"
       ns1:alignment="middle center"
       ns1:scale="1.0"
       ns1:preamble="/home/clexma/.config/inkscape/extensions/textext/default_packages.tex"
       ns1:text="$\\Pi = \\pi_1\\cdot\\pi_2 \\cdot \\pi_3$"
       ns1:pdfconverter="pdf2svg"
       ns1:texconverter="xelatex"
       ns1:version="0.9.1"
       transform="matrix(1.25,0,0,1.25,25.805497,233.36478)">
      <g
         id="surface1">
        <g
           id="g4195"
           style="fill:#000000;fill-opacity:1">
          <path
             id="path4197"
             transform="translate(148.71,134.76)"
             d="m 6.28125,-6.15625 c 0,-0.359375 -0.15625,-0.3125 0.609375,-0.3125 l 0.421875,0 0,-0.640625 -7.15625,0 0,0.640625 0.40625,0 c 0.765625,0 0.609375,-0.046875 0.609375,0.3125 l 0,5.21875 c 0,0.359375 0.15625,0.296875 -0.609375,0.296875 l -0.40625,0 0,0.65625 C 0.671875,-0.03125 1.421875,-0.03125 1.796875,-0.03125 c 0.375,0 1.125,0 1.640625,0.046875 l 0,-0.65625 -0.40625,0 c -0.765625,0 -0.625,0.0625 -0.625,-0.296875 l 0,-5.53125 2.640625,0 0,5.53125 c 0,0.359375 0.15625,0.296875 -0.609375,0.296875 l -0.421875,0 0,0.65625 C 4.546875,-0.03125 5.28125,-0.03125 5.65625,-0.03125 c 0.390625,0 1.125,0 1.65625,0.046875 l 0,-0.65625 -0.421875,0 c -0.765625,0 -0.609375,0.0625 -0.609375,-0.296875 z m 0,0"
             style="stroke:none;stroke-width:0"
             inkscape:connector-curvature="0" />
        </g>
        <g
           id="g4199"
           style="fill:#000000;fill-opacity:1">
          <path
             id="path4201"
             transform="translate(158.95196,134.76)"
             d="m 6.84375,-3.265625 c 0.15625,0 0.515625,-0.15625 0.515625,-0.359375 0,-0.1875 -0.359375,-0.359375 -0.5,-0.359375 l -5.96875,0 C 0.75,-3.984375 0.375,-3.8125 0.375,-3.625 c 0,0.203125 0.375,0.359375 0.515625,0.359375 z m 0.015625,1.9375 c 0.140625,0 0.5,-0.15625 0.5,-0.359375 C 7.359375,-1.890625 7,-2.046875 6.84375,-2.046875 l -5.953125,0 C 0.75,-2.046875 0.375,-1.890625 0.375,-1.6875 c 0,0.203125 0.375,0.359375 0.515625,0.359375 z m 0,0"
             style="stroke:none;stroke-width:0"
             inkscape:connector-curvature="0" />
        </g>
        <g
           id="g4203"
           style="fill:#000000;fill-opacity:1">
          <path
             id="path4205"
             transform="translate(169.47,134.76)"
             d="m 2.640625,-3.71875 0.90625,0 c -0.28125,1.3125 -0.375,1.75 -0.375,2.40625 0,0.15625 0,0.421875 0.078125,0.765625 0.09375,0.4375 0.390625,0.65625 0.53125,0.65625 0.203125,0 0.578125,-0.34375 0.578125,-0.53125 0,-0.0625 0,-0.09375 -0.046875,-0.21875 -0.296875,-0.71875 -0.296875,-1.375 -0.296875,-1.65625 0,-0.53125 0.078125,-1.0625 0.140625,-1.421875 l 1,0 c 0.140625,0 0.671875,-0.15625 0.671875,-0.5 C 5.828125,-4.453125 5.4375,-4.625 5.25,-4.625 l -3.34375,0 c -0.21875,0 -0.71875,0.046875 -1.15625,0.515625 -0.34375,0.390625 -0.65625,0.96875 -0.65625,1.015625 0,0.015625 0.171875,0.265625 0.296875,0.265625 0.078125,0 0.21875,-0.09375 0.28125,-0.171875 0.484375,-0.765625 0.9375,-0.71875 1.140625,-0.71875 l 0.34375,0 c -0.265625,1.046875 -0.8125,2.25 -1.15625,3 -0.109375,0.1875 -0.15625,0.328125 -0.15625,0.40625 0,0.1875 0.34375,0.421875 0.46875,0.421875 0.296875,0 0.546875,-0.4375 0.671875,-0.8125 C 2.125,-1.15625 2.125,-1.171875 2.25,-1.671875 L 2.765625,-3.71875 Z m 0,0"
             style="stroke:none;stroke-width:0"
             inkscape:connector-curvature="0" />
        </g>
        <g
           id="g4207"
           style="fill:#000000;fill-opacity:1">
          <path
             id="path4209"
             transform="translate(175.15,136.26)"
             d="m 2.515625,-4.625 c 0,-0.1875 -0.1875,-0.390625 -0.46875,-0.390625 -0.5,0.5 -1,0.4375 -1.484375,0.4375 l 0,0.640625 c 0.359375,0 0.953125,-0.046875 1.015625,-0.078125 l 0,3.25 c 0,0.234375 0.1875,0.125 -0.5,0.125 l -0.46875,0 0,0.65625 C 0.9375,0 1.796875,-0.03125 2.046875,-0.03125 c 0.21875,0 1.09375,0.03125 1.4375,0.046875 l 0,-0.65625 -0.453125,0 c -0.703125,0 -0.515625,0.109375 -0.515625,-0.125 z m 0,0"
             style="stroke:none;stroke-width:0"
             inkscape:connector-curvature="0" />
        </g>
        <g
           id="g4211"
           style="fill:#000000;fill-opacity:1">
          <path
             id="path4213"
             transform="translate(181.83,134.76)"
             d="m 2.109375,-2.625 c 0,-0.28125 -0.4375,-0.671875 -0.71875,-0.671875 -0.296875,0 -0.734375,0.390625 -0.734375,0.671875 0,0.296875 0.4375,0.65625 0.734375,0.65625 0.28125,0 0.71875,-0.359375 0.71875,-0.65625 z m 0,0"
             style="stroke:none;stroke-width:0"
             inkscape:connector-curvature="0" />
        </g>
        <g
           id="g4215"
           style="fill:#000000;fill-opacity:1">
          <path
             id="path4217"
             transform="translate(186.81,134.76)"
             d="m 2.640625,-3.71875 0.90625,0 c -0.28125,1.3125 -0.375,1.75 -0.375,2.40625 0,0.15625 0,0.421875 0.078125,0.765625 0.09375,0.4375 0.390625,0.65625 0.53125,0.65625 0.203125,0 0.578125,-0.34375 0.578125,-0.53125 0,-0.0625 0,-0.09375 -0.046875,-0.21875 -0.296875,-0.71875 -0.296875,-1.375 -0.296875,-1.65625 0,-0.53125 0.078125,-1.0625 0.140625,-1.421875 l 1,0 c 0.140625,0 0.671875,-0.15625 0.671875,-0.5 C 5.828125,-4.453125 5.4375,-4.625 5.25,-4.625 l -3.34375,0 c -0.21875,0 -0.71875,0.046875 -1.15625,0.515625 -0.34375,0.390625 -0.65625,0.96875 -0.65625,1.015625 0,0.015625 0.171875,0.265625 0.296875,0.265625 0.078125,0 0.21875,-0.09375 0.28125,-0.171875 0.484375,-0.765625 0.9375,-0.71875 1.140625,-0.71875 l 0.34375,0 c -0.265625,1.046875 -0.8125,2.25 -1.15625,3 -0.109375,0.1875 -0.15625,0.328125 -0.15625,0.40625 0,0.1875 0.34375,0.421875 0.46875,0.421875 0.296875,0 0.546875,-0.4375 0.671875,-0.8125 C 2.125,-1.15625 2.125,-1.171875 2.25,-1.671875 L 2.765625,-3.71875 Z m 0,0"
             style="stroke:none;stroke-width:0"
             inkscape:connector-curvature="0" />
        </g>
        <g
           id="g4219"
           style="fill:#000000;fill-opacity:1">
          <path
             id="path4221"
             transform="translate(192.49,136.26)"
             d="m 3.515625,-1.65625 -0.40625,0 c -0.046875,0.34375 -0.0625,0.625 -0.140625,0.6875 -0.0625,0.046875 -0.453125,-0.015625 -0.5625,-0.015625 l -1.28125,0 0.140625,0.34375 C 2,-1.296875 2.234375,-1.484375 2.65625,-1.8125 c 0.515625,-0.421875 1.046875,-0.984375 1.046875,-1.65625 0,-0.84375 -0.921875,-1.546875 -1.8125,-1.546875 -0.859375,0 -1.640625,0.796875 -1.640625,1.4375 0,0.359375 0.484375,0.59375 0.5625,0.59375 0.15625,0 0.546875,-0.3125 0.546875,-0.5625 0,-0.125 -0.234375,-0.578125 -0.328125,-0.578125 0.140625,-0.296875 0.421875,-0.25 0.75,-0.25 0.703125,0 0.859375,0.34375 0.859375,0.90625 0,0.609375 -0.375,0.953125 -0.59375,1.203125 L 0.375,-0.59375 C 0.296875,-0.53125 0.25,-0.390625 0.25,0 L 3.46875,0 3.75,-1.65625 Z m 0,0"
             style="stroke:none;stroke-width:0"
             inkscape:connector-curvature="0" />
        </g>
        <g
           id="g4223"
           style="fill:#000000;fill-opacity:1">
          <path
             id="path4225"
             transform="translate(199.17,134.76)"
             d="m 2.109375,-2.625 c 0,-0.28125 -0.4375,-0.671875 -0.71875,-0.671875 -0.296875,0 -0.734375,0.390625 -0.734375,0.671875 0,0.296875 0.4375,0.65625 0.734375,0.65625 0.28125,0 0.71875,-0.359375 0.71875,-0.65625 z m 0,0"
             style="stroke:none;stroke-width:0"
             inkscape:connector-curvature="0" />
        </g>
        <g
           id="g4227"
           style="fill:#000000;fill-opacity:1">
          <path
             id="path4230"
             transform="translate(204.15,134.76)"
             d="m 2.640625,-3.71875 0.90625,0 c -0.28125,1.3125 -0.375,1.75 -0.375,2.40625 0,0.15625 0,0.421875 0.078125,0.765625 0.09375,0.4375 0.390625,0.65625 0.53125,0.65625 0.203125,0 0.578125,-0.34375 0.578125,-0.53125 0,-0.0625 0,-0.09375 -0.046875,-0.21875 -0.296875,-0.71875 -0.296875,-1.375 -0.296875,-1.65625 0,-0.53125 0.078125,-1.0625 0.140625,-1.421875 l 1,0 c 0.140625,0 0.671875,-0.15625 0.671875,-0.5 C 5.828125,-4.453125 5.4375,-4.625 5.25,-4.625 l -3.34375,0 c -0.21875,0 -0.71875,0.046875 -1.15625,0.515625 -0.34375,0.390625 -0.65625,0.96875 -0.65625,1.015625 0,0.015625 0.171875,0.265625 0.296875,0.265625 0.078125,0 0.21875,-0.09375 0.28125,-0.171875 0.484375,-0.765625 0.9375,-0.71875 1.140625,-0.71875 l 0.34375,0 c -0.265625,1.046875 -0.8125,2.25 -1.15625,3 -0.109375,0.1875 -0.15625,0.328125 -0.15625,0.40625 0,0.1875 0.34375,0.421875 0.46875,0.421875 0.296875,0 0.546875,-0.4375 0.671875,-0.8125 C 2.125,-1.15625 2.125,-1.171875 2.25,-1.671875 L 2.765625,-3.71875 Z m 0,0"
             style="stroke:none;stroke-width:0"
             inkscape:connector-curvature="0" />
        </g>
        <g
           id="g4232"
           style="fill:#000000;fill-opacity:1">
          <path
             id="path4234"
             transform="translate(209.83,136.26)"
             d="m 1.90625,-2.328125 c 0.546875,0 0.734375,0.1875 0.734375,0.921875 0,0.875 -0.3125,0.9375 -0.703125,0.9375 -0.28125,0 -0.765625,-0.015625 -0.84375,-0.109375 -0.015625,0 0.25,-0.4375 0.25,-0.578125 0,-0.21875 -0.359375,-0.578125 -0.578125,-0.578125 -0.1875,0 -0.578125,0.3125 -0.578125,0.59375 0,0.65625 0.90625,1.28125 1.75,1.28125 0.96875,0 1.828125,-0.84375 1.828125,-1.546875 0,-0.53125 -0.625,-1.28125 -1.390625,-1.4375 l 0,0.390625 c 0.71875,-0.265625 1.171875,-0.984375 1.171875,-1.40625 0,-0.546875 -0.8125,-1.15625 -1.59375,-1.15625 -0.765625,0 -1.5625,0.5625 -1.5625,1.125 0,0.234375 0.359375,0.5625 0.5625,0.5625 0.21875,0 0.546875,-0.34375 0.546875,-0.546875 0,-0.203125 -0.328125,-0.546875 -0.171875,-0.53125 0,0 0.34375,-0.015625 0.609375,-0.015625 0.3125,0 0.5625,-0.046875 0.5625,0.5625 0,0.296875 -0.046875,0.484375 -0.234375,0.703125 -0.21875,0.25 -0.28125,0.203125 -0.625,0.234375 -0.171875,0.015625 -0.1875,0.015625 -0.21875,0.015625 -0.015625,0 -0.265625,0.203125 -0.265625,0.28125 0,0.109375 0.25,0.296875 0.375,0.296875 z m 0,0"
             style="stroke:none;stroke-width:0"
             inkscape:connector-curvature="0" />
        </g>
      </g>
    </g>
  </g>
</svg>
